<svg width="60" height="60" viewBox="0 0 60 60" fill="none" xmlns="http://www.w3.org/2000/svg">
<path d="M44.7502 22.9168C44.3146 22.7368 43.815 22.9439 43.6348 23.3797L41.7275 27.9933L39.8203 23.3797C39.6401 22.944 39.1407 22.7365 38.7049 22.9168C38.2691 23.0969 38.0618 23.5963 38.242 24.0321L40.8952 30.4499C41.1934 31.1713 42.2723 31.1457 42.5599 30.4499L45.213 24.0321C45.3933 23.5963 45.186 23.0969 44.7502 22.9168ZM50.5889 27.799C53.02 26.5214 52.0904 22.852 49.3729 22.852H47.2138C46.7422 22.852 46.3598 23.2343 46.3598 23.7058V30.1854C46.3598 30.6571 46.7421 31.0392 47.2138 31.0392C47.6854 31.0392 48.0676 30.6569 48.0676 30.1854V28.0988H48.7402L50.43 30.6561C50.6899 31.0495 51.2197 31.1579 51.6131 30.8978C52.0066 30.6378 52.1148 30.1081 51.8548 29.7146L50.5889 27.799ZM49.3729 26.3912H48.0676V24.5598H49.3729C49.8778 24.5598 50.2886 24.9706 50.2886 25.4755C50.2886 25.9803 49.8778 26.3912 49.3729 26.3912ZM7.02211 30.3117C6.55055 30.3117 6.16828 30.694 6.16828 31.1656V32.5059C6.16828 32.9776 6.55055 33.3599 7.02211 33.3599C7.49367 33.3599 7.87605 32.9776 7.87605 32.5059V31.1656C7.87605 30.694 7.49367 30.3117 7.02211 30.3117ZM11.2212 21.1414C8.29324 21.1414 6.16816 23.2665 6.16816 26.1944V28.2617C6.16816 28.7334 6.55043 29.1157 7.02199 29.1157C7.49355 29.1157 7.87594 28.7334 7.87594 28.2617V26.1944C7.87594 24.5293 8.91023 22.8493 11.2212 22.8493C11.6927 22.8493 12.0751 22.4671 12.0751 21.9954C12.0751 21.5237 11.6927 21.1414 11.2212 21.1414ZM57.8381 25.6894H56.9763C56.9224 21.4373 53.4486 17.9945 49.1839 17.9945H35.8212V17.1351C35.8212 15.943 34.8513 14.9731 33.6593 14.9731H26.3407C25.1487 14.9731 24.1788 15.943 24.1788 17.1351V17.9945H10.8161C6.55148 17.9945 3.0777 21.4374 3.02367 25.6894H2.16187C0.969844 25.6894 0 26.6592 0 27.8513V35.1699C0 36.362 0.969844 37.3318 2.16199 37.3318H3.02379C3.0777 41.5838 6.55148 45.0268 10.8162 45.0268H23.7731C25.5548 45.0268 27.0043 43.5773 27.0043 41.7957C27.0043 40.8948 27.7371 40.162 28.6379 40.162H31.3622C32.263 40.162 32.9958 40.8949 32.9958 41.7957C32.9958 43.5773 34.4453 45.0268 36.227 45.0268H49.1839C53.4486 45.0268 56.9224 41.5838 56.9763 37.3318H57.8381C59.0302 37.3318 60 36.362 60 35.1699V27.8513C60 26.6592 59.0302 25.6894 57.8381 25.6894ZM3.02121 35.6239H2.16199C1.91156 35.6239 1.70777 35.4203 1.70777 35.1698V27.8512C1.70777 27.6008 1.91156 27.397 2.16199 27.397H3.02121V35.6239ZM25.8866 17.1351C25.8866 16.8847 26.0904 16.6809 26.3407 16.6809H33.6593C33.9097 16.6809 34.1134 16.8847 34.1134 17.1351V17.9945H25.8866V17.1351ZM55.2561 37.232C55.2561 40.5801 52.5321 43.3042 49.1839 43.3042H36.227C35.3952 43.3042 34.7184 42.6274 34.7184 41.7956C34.7184 39.9449 33.2128 38.4392 31.3621 38.4392H28.6378C26.7872 38.4392 25.2814 39.9449 25.2814 41.7956C25.2814 42.6274 24.6048 43.3042 23.7729 43.3042H10.8161C7.46789 43.3042 4.74387 40.5801 4.74387 37.232V25.7892C4.74387 22.441 7.46789 19.717 10.8161 19.717H49.1839C52.5321 19.717 55.2561 22.441 55.2561 25.7892V37.232ZM58.2922 35.1699C58.2922 35.4204 58.0884 35.624 57.8381 35.624H56.9789V27.3972H57.8381C58.0886 27.3972 58.2922 27.601 58.2922 27.8515V35.1699Z" fill="white"/>
</svg>
