<svg width="60" height="60" viewBox="0 0 60 60" fill="none" xmlns="http://www.w3.org/2000/svg">
<path d="M52.32 38.82C50.58 38.82 49.14 40.02 48.72 41.64H45V34.8H45.54C51.66 34.8 57 29.46 57 23.4C57 18.12 53.94 13.98 48.96 12.48C48.48 8.63998 45.96 5.51998 42.3 4.13998C38.64 2.75998 34.62 3.53998 31.74 6.05998C28.92 4.79998 25.44 4.79998 22.32 6.11998C19.62 7.25998 17.58 9.29998 16.62 11.76C14.82 11.64 13.02 12.24 11.64 13.5C10.26 14.76 9.48 16.44 9.48 18.24C5.7 19.14 3 22.44 3 26.46C3 31.02 6.84 34.86 11.4 34.86H15V41.64H11.28C10.86 40.02 9.42 38.82 7.68 38.82C5.64 38.82 3.96 40.5 3.96 42.54C3.96 44.58 5.64 46.26 7.68 46.26C9.42 46.26 10.86 45.06 11.28 43.44H15.9C16.38 43.44 16.8 43.02 16.8 42.54V34.8H22.08V44.1L18.6 47.58C18.06 47.22 17.4 47.04 16.68 47.04C14.64 47.04 12.96 48.72 12.96 50.76C12.96 52.8 14.64 54.48 16.68 54.48C18.72 54.48 20.4 52.8 20.4 50.76C20.4 50.04 20.22 49.44 19.86 48.84L23.52 45.18C23.7 45 23.76 44.76 23.76 44.52V34.8H29.04V49.26C27.42 49.68 26.22 51.12 26.22 52.86C26.22 54.9 27.9 56.58 29.94 56.58C31.98 56.58 33.66 54.9 33.66 52.86C33.66 51.12 32.46 49.68 30.84 49.26V34.8H36.12V44.52C36.12 44.76 36.24 45 36.36 45.18L40.02 48.84C39.66 49.38 39.48 50.04 39.48 50.76C39.48 52.8 41.16 54.48 43.2 54.48C45.24 54.48 46.92 52.8 46.92 50.76C46.92 48.72 45.24 47.04 43.2 47.04C42.48 47.04 41.88 47.22 41.28 47.58L37.86 44.16V34.8H43.2V42.48C43.2 42.96 43.62 43.38 44.1 43.38H48.72C49.14 45 50.58 46.2 52.32 46.2C54.36 46.2 56.04 44.52 56.04 42.48C56.04 40.44 54.36 38.82 52.32 38.82ZM7.68 44.4C6.66 44.4 5.76 43.56 5.76 42.48C5.76 41.46 6.6 40.56 7.68 40.56C8.7 40.56 9.6 41.4 9.6 42.48C9.6 43.56 8.7 44.4 7.68 44.4ZM16.74 52.62C15.72 52.62 14.82 51.78 14.82 50.7C14.82 49.68 15.66 48.78 16.74 48.78C17.76 48.78 18.66 49.62 18.66 50.7C18.6 51.78 17.76 52.62 16.74 52.62ZM31.92 52.86C31.92 53.88 31.08 54.78 30 54.78C28.98 54.78 28.08 53.94 28.08 52.86C28.08 51.84 28.92 50.94 30 50.94C31.02 50.94 31.92 51.78 31.92 52.86ZM45.18 50.7C45.18 51.72 44.34 52.62 43.26 52.62C42.24 52.62 41.34 51.78 41.34 50.7C41.34 49.68 42.18 48.78 43.26 48.78C44.34 48.84 45.18 49.68 45.18 50.7ZM4.8 26.46C4.8 23.04 7.14 20.34 10.56 19.92C11.04 19.86 11.4 19.44 11.34 18.96C11.22 17.4 11.76 15.96 12.9 14.88C13.8 14.04 15 13.56 16.2 13.56C16.5 13.56 16.8 13.56 17.1 13.62C17.58 13.68 18 13.44 18.12 12.96C18.72 10.74 20.52 8.81998 23.04 7.73998C25.86 6.53998 29.1 6.59998 31.5 7.85998C31.86 8.03998 32.28 7.97998 32.58 7.67998C34.98 5.27998 38.46 4.49998 41.7 5.69998C44.88 6.89998 47.04 9.71998 47.28 13.14C47.28 13.5 47.58 13.86 47.94 13.92C52.44 15.18 55.2 18.78 55.2 23.4C55.2 28.5 50.7 33 45.54 33H11.4C7.8 33 4.8 30 4.8 26.46ZM52.32 44.4C51.3 44.4 50.4 43.56 50.4 42.48C50.4 41.46 51.24 40.56 52.32 40.56C53.34 40.56 54.24 41.4 54.24 42.48C54.24 43.56 53.4 44.4 52.32 44.4Z" fill="white"/>
</svg>
