<svg width="1042" height="610" viewBox="0 0 1042 610" fill="none" xmlns="http://www.w3.org/2000/svg">
<mask id="mask0_22373_15258" style="mask-type:alpha" maskUnits="userSpaceOnUse" x="0" y="0" width="1042" height="610">
<rect width="1041.99" height="610" fill="url(#paint0_radial_22373_15258)"/>
</mask>
<g mask="url(#mask0_22373_15258)">
<line x1="1628.11" y1="94.6618" x2="0.000366211" y2="94.6618" stroke="#064DFA" stroke-opacity="0.3" stroke-width="1.08541"/>
<line x1="1628.11" y1="199.404" x2="0.000366211" y2="199.404" stroke="#064DFA" stroke-opacity="0.3" stroke-width="1.08541"/>
<line x1="1628.11" y1="304.146" x2="0.000366211" y2="304.146" stroke="#064DFA" stroke-opacity="0.3" stroke-width="1.08541"/>
<line x1="1628.11" y1="408.888" x2="0.000366211" y2="408.888" stroke="#064DFA" stroke-opacity="0.3" stroke-width="1.08541"/>
<line x1="1628.11" y1="513.629" x2="0.000366211" y2="513.629" stroke="#064DFA" stroke-opacity="0.3" stroke-width="1.08541"/>
<line x1="87.3757" y1="10" x2="87.3757" y2="655.819" stroke="#064DFA" stroke-opacity="0.3" stroke-width="1.08541"/>
<line x1="195.917" y1="10" x2="195.917" y2="655.819" stroke="#064DFA" stroke-opacity="0.3" stroke-width="1.08541"/>
<line x1="304.458" y1="10" x2="304.458" y2="655.819" stroke="#064DFA" stroke-opacity="0.3" stroke-width="1.08541"/>
<line x1="412.999" y1="10" x2="412.999" y2="655.819" stroke="#064DFA" stroke-opacity="0.3" stroke-width="1.08541"/>
<line x1="521.54" y1="10" x2="521.54" y2="655.819" stroke="#064DFA" stroke-opacity="0.3" stroke-width="1.08541"/>
<line x1="630.08" y1="10" x2="630.08" y2="655.819" stroke="#064DFA" stroke-opacity="0.3" stroke-width="1.08541"/>
<line x1="738.621" y1="10" x2="738.621" y2="655.819" stroke="#064DFA" stroke-opacity="0.3" stroke-width="1.08541"/>
<line x1="847.162" y1="10" x2="847.162" y2="655.819" stroke="#064DFA" stroke-opacity="0.3" stroke-width="1.08541"/>
<line x1="955.703" y1="10" x2="955.703" y2="655.819" stroke="#064DFA" stroke-opacity="0.3" stroke-width="1.08541"/>
<rect x="87.375" y="403.461" width="7.67477" height="7.67477" transform="rotate(45 87.375 403.461)" fill="#064DFA" fill-opacity="0.4"/>
<rect x="738.617" y="505.074" width="10.7723" height="10.7723" transform="rotate(45 738.617 505.074)" fill="#064DFA" fill-opacity="0.4"/>
<rect x="87.375" y="193.977" width="7.67477" height="7.67477" transform="rotate(45 87.375 193.977)" fill="#064DFA" fill-opacity="0.4"/>
<rect x="955.703" y="193.977" width="7.67477" height="7.67477" transform="rotate(45 955.703 193.977)" fill="#064DFA" fill-opacity="0.4"/>
<rect x="195.374" y="298.719" width="7.67477" height="7.67477" transform="rotate(45 195.374 298.719)" fill="#064DFA" fill-opacity="0.4"/>
<rect x="846.617" y="296" width="10.7723" height="10.7723" transform="rotate(45 846.617 296)" fill="#064DFA" fill-opacity="0.4"/>
<rect x="521.617" y="297" width="10.7723" height="10.7723" transform="rotate(45 521.617 297)" fill="#064DFA" fill-opacity="0.4"/>
<rect x="304.457" y="89.2344" width="7.67477" height="7.67477" transform="rotate(45 304.457 89.2344)" fill="#064DFA" fill-opacity="0.4"/>
<rect x="738.617" y="87" width="10.7723" height="10.7723" transform="rotate(45 738.617 87)" fill="#064DFA" fill-opacity="0.4"/>
</g>
<defs>
<radialGradient id="paint0_radial_22373_15258" cx="0" cy="0" r="1" gradientUnits="userSpaceOnUse" gradientTransform="translate(832 293.5) rotate(133.001) scale(456.008 778.946)">
<stop stop-color="#737373" stop-opacity="0.54"/>
<stop offset="1" stop-color="#D9D9D9" stop-opacity="0"/>
</radialGradient>
</defs>
</svg>
