<svg width="60" height="60" viewBox="0 0 60 60" fill="none" xmlns="http://www.w3.org/2000/svg">
<path d="M56.2115 26.1558C54.9203 26.1558 53.8362 27.0008 53.4587 28.1583H44.0349V25.427H48.8229C49.3103 25.427 49.7052 25.0321 49.7052 24.5447V20.209H52.3736C52.7912 21.2959 53.8436 22.0733 55.082 22.0733C56.6845 22.0733 57.9879 20.7777 57.9879 19.185C57.9879 17.5958 56.6845 16.3027 55.082 16.3027C53.7394 16.3027 52.6175 17.2151 52.2854 18.4443H48.8228C48.3354 18.4443 47.9404 18.8392 47.9404 19.3266V23.6623H44.0329C44.014 21.5278 42.2709 19.7967 40.1287 19.7967H40.0557V15.4938C41.2264 15.1207 42.0817 14.0413 42.0817 12.7554C42.0817 11.1662 40.7782 9.87307 39.1758 9.87307C37.5702 9.87307 36.2639 11.1661 36.2639 12.7554C36.2639 14.04 37.1195 15.1187 38.2909 15.4928V19.7969H34.4777V10.3689C35.646 9.99447 36.4991 8.91611 36.4991 7.63186C36.4991 6.04268 35.1957 4.74951 33.5932 4.74951C31.9908 4.74951 30.6873 6.04256 30.6873 7.63186C30.6873 8.91752 31.5425 9.99682 32.7128 10.3701V19.7967H28.9498V13.5576C28.9498 9.41604 25.5243 6.04654 21.3141 6.04654C18.1046 6.04654 15.2648 8.02385 14.1645 10.9381C9.64 10.7318 5.62211 14.3481 5.62211 19.0235C5.62211 19.8792 5.7591 20.7178 6.02992 21.5272C2.95539 22.7476 0.882812 25.7046 0.882812 29.0244C0.882812 32.0608 2.61262 34.8008 5.29082 36.1817C5.36793 36.3409 5.49027 36.4732 5.64402 36.5618C4.29285 43.27 8.20363 48.9787 12.6652 48.9787C13.3864 48.9787 14.0922 48.8381 14.7738 48.5598C15.9333 51.1793 18.5843 52.9323 21.5512 52.9323C25.6309 52.9323 28.9498 49.6674 28.9498 45.654V39.732H33.262V49.6303C32.0935 50.0039 31.2401 51.0801 31.2401 52.3617C31.2401 53.9544 32.5436 55.2501 34.146 55.2501C35.7484 55.2501 37.0519 53.9544 37.0519 52.3617C37.0519 51.0789 36.1969 50.0019 35.0267 49.6293V39.7321H37.8041V45.0484C37.8041 45.5358 38.1991 45.9307 38.6864 45.9307H43.0762V48.5556C41.9788 48.9679 41.1931 50.0132 41.1931 51.2441C41.1931 52.8368 42.4966 54.1324 44.099 54.1324C45.7014 54.1324 47.0049 52.8368 47.0049 51.2441C47.0049 49.9108 46.0827 48.7965 44.8409 48.4689V45.0483C44.8409 44.5609 44.446 44.166 43.9586 44.166H39.5689V39.7321H40.1284C42.2823 39.7321 44.0344 37.98 44.0344 35.8263V35.4441H48.2819C48.6597 36.6034 49.7436 37.4497 51.0344 37.4497C52.6368 37.4497 53.9403 36.1541 53.9403 34.5617C53.9403 32.969 52.6368 31.6733 51.0344 31.6733C49.7436 31.6733 48.6596 32.5198 48.2819 33.6794H44.0344V29.923H53.4593C53.8378 31.0812 54.9211 31.9265 56.2111 31.9265C57.8136 31.9265 59.117 30.6308 59.117 29.0381C59.1174 27.4488 57.8139 26.1558 56.2115 26.1558ZM55.0821 18.0675C55.7114 18.0675 56.2233 18.5687 56.2233 19.1851C56.2233 19.8047 55.7114 20.3087 55.0821 20.3087C54.4529 20.3087 53.9407 19.8046 53.9407 19.1851C53.9406 18.5687 54.4527 18.0675 55.0821 18.0675ZM27.1854 22.0881C26.1385 21.0545 24.7655 20.4404 23.2714 20.3592C22.792 20.3234 22.3689 20.7053 22.3424 21.1922C22.3157 21.6788 22.6888 22.0947 23.1754 22.1212C24.3255 22.1837 25.3764 22.6853 26.135 23.5329C27.2907 24.8241 27.1219 26.0937 27.1853 26.6461V45.6543C27.1853 48.6946 24.658 51.1678 21.5514 51.1678C19.0109 51.1678 16.7762 49.489 16.1171 47.0851C16.0432 46.8165 15.8468 46.5983 15.5874 46.4969C15.3193 46.3924 15.028 46.427 14.7989 46.5699C14.1136 46.9972 13.3959 47.2142 12.6654 47.2142C9.07012 47.2142 6.18519 42.0211 7.44449 36.596C10.1141 36.1266 12.2193 33.9093 12.3891 31.1309C12.419 30.6443 12.0488 30.2258 11.5625 30.1962C11.0753 30.1663 10.6577 30.5369 10.6278 31.0228C10.5002 33.103 8.82039 34.7302 6.75496 34.9056C4.28875 33.9593 2.64766 31.6308 2.64766 29.0246C2.64766 26.3939 4.32438 24.0563 6.79551 23.1274C7.92426 24.1238 9.36191 24.6371 10.8089 24.6371C12.1954 24.6371 13.5876 24.1695 14.7181 23.2147C15.0904 22.9002 15.1374 22.3436 14.823 21.9714C14.5084 21.5994 13.9526 21.5523 13.5796 21.8665C11.9741 23.2218 9.62805 23.1884 8.06137 21.8876C7.99258 21.5623 7.38695 20.6746 7.38695 19.0235C7.38695 15.4835 10.3605 12.6538 13.9129 12.698C14.7648 15.5671 17.72 17.4222 20.803 16.8472C21.2821 16.7574 21.5978 16.2966 21.5082 15.8175C21.4183 15.3387 20.9584 15.0251 20.4784 15.1124C18.3071 15.52 16.2025 14.2242 15.6025 12.1866C15.6133 12.1583 15.6327 12.1355 15.6407 12.1057C16.3149 9.57729 18.6477 7.81139 21.3143 7.81139C24.5516 7.81139 27.1853 10.3893 27.1853 13.5577L27.1854 22.0881ZM44.0993 50.1266C44.7286 50.1266 45.2405 50.6278 45.2405 51.2442C45.2405 51.8638 44.7286 52.3678 44.0993 52.3678C43.47 52.3678 42.9582 51.8637 42.9582 51.2442C42.9583 50.6278 43.47 50.1266 44.0993 50.1266ZM38.0288 12.7555C38.0288 12.1395 38.5435 11.6379 39.1759 11.6379C39.8052 11.6379 40.3171 12.1394 40.3171 12.7555C40.3171 13.3751 39.8052 13.8791 39.1759 13.8791C38.5436 13.8791 38.0288 13.3751 38.0288 12.7555ZM32.4523 7.63197C32.4523 7.01592 32.9642 6.51436 33.5935 6.51436C34.2228 6.51436 34.7346 7.0158 34.7346 7.63197C34.7346 8.25154 34.2228 8.75557 33.5935 8.75557C32.9642 8.75557 32.4523 8.25154 32.4523 7.63197ZM35.2875 52.3619C35.2875 52.9814 34.7757 53.4855 34.1464 53.4855C33.5171 53.4855 33.0052 52.9813 33.0052 52.3619C33.0052 51.7458 33.5171 51.2442 34.1464 51.2442C34.7757 51.2442 35.2875 51.7457 35.2875 52.3619ZM42.27 35.8265C42.27 37.007 41.3096 37.9675 40.1288 37.9675H28.9502V21.5616H40.1288C41.3096 21.5616 42.27 22.5195 42.27 23.6969V35.8265ZM51.0347 33.4382C51.664 33.4382 52.1759 33.9423 52.1759 34.5618C52.1759 35.1813 51.664 35.6851 51.0347 35.6851C50.4054 35.6851 49.8936 35.1813 49.8936 34.5618C49.8937 33.9422 50.4054 33.4382 51.0347 33.4382ZM56.2115 30.1617C55.5822 30.1617 55.0703 29.6577 55.0703 29.0381C55.0703 28.4217 55.5822 27.9205 56.2115 27.9205C56.8408 27.9205 57.3527 28.4217 57.3527 29.0381C57.3527 29.6577 56.8408 30.1617 56.2115 30.1617Z" fill="white"/>
<path d="M21.2013 33.856C21.3302 36.1408 19.5457 38.1023 17.1976 38.2301C16.711 38.2565 16.3379 38.6725 16.3646 39.1591C16.3902 39.6292 16.7794 39.9934 17.2447 39.9934C17.2608 39.9934 17.2772 39.9932 17.2936 39.992C20.6311 39.8105 23.1465 37.0019 22.9631 33.7566C22.9358 33.27 22.5113 32.8967 22.0325 32.9254C21.5461 32.9529 21.1738 33.3694 21.2013 33.856Z" fill="white"/>
</svg>
