<svg width="60" height="60" viewBox="0 0 60 60" fill="none" xmlns="http://www.w3.org/2000/svg">
<path fill-rule="evenodd" clip-rule="evenodd" d="M54.6618 25.6143L52.9104 17.177C52.8249 16.7645 52.4417 16.4838 52.0218 16.5279L44.9704 17.2666C44.9201 17.2109 44.8683 17.1559 44.8145 17.1022C44.0099 16.2976 42.9402 15.8545 41.8023 15.8545C41.7237 15.8545 41.6455 15.8571 41.5676 15.8613L33.7648 6.40852C33.5997 5.06262 32.9966 3.81738 32.0226 2.84332C29.6399 0.46043 25.7624 0.46043 23.3798 2.84332C22.2254 3.99762 21.5897 5.5323 21.5897 7.16473C21.5897 7.40801 21.6055 7.64871 21.6334 7.8866L11.8377 15.9724C10.1949 16.0478 8.57418 16.7111 7.3225 17.9627C6.03191 19.2532 5.32129 20.9688 5.32129 22.7938C5.32129 24.6187 6.03191 26.3345 7.3225 27.625C8.29445 28.597 9.50793 29.2397 10.8276 29.4979L17.497 44.1066C17.3903 44.1775 17.2898 44.2593 17.1972 44.352L14.7987 46.7504C14.0445 47.5047 14.0445 48.732 14.7987 49.4861C15.8188 50.5062 15.7946 51.8055 15.4318 52.6815C15.0689 53.5574 14.1673 54.4932 12.7246 54.4932C11.658 54.4932 10.7902 55.361 10.7902 56.4275V58.1235C10.7902 58.5765 11.1575 58.9438 11.6105 58.9438H20.4216C20.8747 58.9438 21.2419 58.5765 21.2419 58.1235C21.2419 54.0826 24.5295 50.795 28.5704 50.795C32.6112 50.795 35.8987 54.0826 35.8987 58.1235C35.8987 58.5765 36.2659 58.9438 36.719 58.9438H45.5301C45.9831 58.9438 46.3504 58.5765 46.3504 58.1235V56.4275C46.3504 55.3609 45.4826 54.4932 44.416 54.4932C42.9733 54.4932 42.0718 53.5574 41.7088 52.6815C41.346 51.8055 41.3219 50.5062 42.342 49.4859C43.096 48.7317 43.096 47.5047 42.3419 46.7503L39.9434 44.352C39.5781 43.9866 39.0924 43.7855 38.5756 43.7855C38.0589 43.7855 37.5731 43.9866 37.2075 44.352C36.1875 45.3722 34.8882 45.3479 34.0122 44.985C33.1362 44.6222 32.2004 43.7205 32.2004 42.2779C32.2004 41.2112 31.3327 40.3436 30.2661 40.3436H28.9226L18.3961 25.5655C18.8059 24.6396 18.9999 23.6412 18.9786 22.646L26.774 13.2022C27.0811 13.249 27.3911 13.2734 27.7011 13.2734C28.236 13.2734 28.7706 13.202 29.2907 13.0628L37.5491 19.8797C37.5449 19.9576 37.5423 20.0358 37.5423 20.1144C37.5423 21.2523 37.9854 22.322 38.7899 23.1266C38.8436 23.1803 38.8986 23.232 38.9545 23.2823L38.2157 30.3337C38.1719 30.7527 38.4524 31.1368 38.8648 31.2224L47.3021 32.9739C47.3575 32.9855 47.4133 32.991 47.4688 32.991C47.6841 32.991 47.8934 32.9061 48.0488 32.7507L49.0064 31.7931C49.1951 31.6044 49.2803 31.3359 49.2347 31.073C49.1891 30.8101 49.0186 30.5858 48.7776 30.4717L43.2681 27.862L44.2087 23.6296C44.4232 23.482 44.6263 23.3146 44.8144 23.1265C45.0036 22.9373 45.17 22.7341 45.316 22.5211L49.5499 21.5803L52.1595 27.0896C52.2738 27.3307 52.4981 27.5012 52.7609 27.5467C52.8074 27.5548 52.8544 27.5588 52.9008 27.5588C53.1165 27.5588 53.3257 27.4736 53.4808 27.3185L54.4384 26.361C54.6341 26.1656 54.7181 25.8848 54.6618 25.6143ZM6.96168 22.7938C6.96168 21.4071 7.50168 20.1034 8.48231 19.1228C9.49457 18.1105 10.8237 17.6046 12.1533 17.6046C13.4826 17.6046 14.8123 18.1107 15.8243 19.1228C17.8484 21.147 17.8484 24.4406 15.8243 26.4648C13.8002 28.489 10.5065 28.489 8.48231 26.4648C7.5018 25.4842 6.96168 24.1805 6.96168 22.7938ZM30.5598 42.2777C30.5598 44.1608 31.6421 45.7789 33.3845 46.5006C35.1265 47.2222 37.0361 46.8436 38.3677 45.5119C38.4426 45.437 38.5301 45.4259 38.5756 45.4259C38.6211 45.4259 38.7085 45.437 38.7832 45.5118L41.1816 47.9101C41.2963 48.0247 41.2963 48.2113 41.1818 48.3258C39.8502 49.6573 39.4713 51.5668 40.193 53.3092C40.9147 55.0514 42.5328 56.1338 44.4157 56.1338C44.5777 56.1338 44.7095 56.2656 44.7095 56.4274V57.303H37.5019C37.0864 52.7405 33.2391 49.1543 28.5701 49.1543C23.901 49.1543 20.0538 52.7405 19.6382 57.303H12.4306V56.4274C12.4306 56.2655 12.5624 56.1338 12.7244 56.1338C14.6073 56.1338 16.2256 55.0515 16.9472 53.3092C17.6689 51.5668 17.2901 49.6573 15.9585 48.3258C15.8439 48.2112 15.8439 48.0248 15.9585 47.9102L18.357 45.5118C18.4318 45.437 18.5192 45.4259 18.5646 45.4259C18.6101 45.4259 18.6977 45.437 18.7723 45.5118C20.1038 46.8432 22.0131 47.2221 23.7556 46.5005C25.4979 45.7788 26.5803 44.1607 26.5803 42.2776C26.5803 42.1157 26.712 41.9839 26.8739 41.9839H30.2658C30.4281 41.9841 30.5598 42.1158 30.5598 42.2777ZM26.9085 40.3434H26.8743C25.8077 40.3434 24.94 41.2112 24.94 42.2777C24.94 43.7204 24.0041 44.6221 23.1282 44.9849C22.2522 45.3478 20.9527 45.3718 19.9328 44.3518C19.7239 44.1429 19.4747 43.9898 19.2037 43.8952L12.6794 29.604C14.3059 29.4809 15.8188 28.7904 16.9844 27.6248C17.1565 27.4527 17.317 27.2734 17.4668 27.0882L26.9085 40.3434ZM18.5986 20.5293C18.2707 19.5913 17.7327 18.7111 16.9844 17.9627C16.1488 17.1272 15.1487 16.5539 14.0875 16.2425L22.105 9.62461C22.4065 10.3099 22.8345 10.9409 23.3798 11.4861C23.8868 11.9932 24.462 12.3913 25.0756 12.6826L18.5986 20.5293ZM24.5397 10.326C23.6954 9.48152 23.2302 8.35875 23.2302 7.16461C23.2302 5.97035 23.6954 4.8477 24.5397 4.00324C25.4113 3.1316 26.5562 2.69578 27.7012 2.69578C28.8461 2.69578 29.991 3.1316 30.8627 4.00324C31.707 4.8477 32.1721 5.97035 32.1721 7.16461C32.1721 8.35875 31.707 9.48152 30.8627 10.326C29.1193 12.0691 26.283 12.0691 24.5397 10.326ZM30.974 12.3246C31.3459 12.0887 31.6984 11.8102 32.0226 11.486C32.7852 10.7234 33.3198 9.79418 33.5959 8.78098L39.8321 16.3359C39.4529 16.5343 39.1015 16.7907 38.7902 17.1021C38.4788 17.4135 38.2224 17.7648 38.024 18.144L30.974 12.3246ZM41.9745 29.0645L46.2131 31.0721L39.9249 29.7668L40.5108 24.1748C40.9232 24.3055 41.3574 24.3742 41.8023 24.3742C41.9944 24.3742 42.1841 24.3605 42.3714 24.3356L41.5248 28.1452C41.4418 28.519 41.6284 28.9005 41.9745 29.0645ZM43.6546 21.9664C43.1597 22.4612 42.5021 22.7337 41.8023 22.7337C41.1027 22.7337 40.445 22.4612 39.9502 21.9664C39.4554 21.4717 39.183 20.814 39.183 20.1143C39.183 19.4146 39.4554 18.7569 39.9502 18.2621H39.9503C40.445 17.7674 41.1027 17.4949 41.8023 17.4949C42.5021 17.4949 43.1597 17.7674 43.6545 18.2621C44.6757 19.2834 44.6757 20.9452 43.6546 21.9664ZM50.7525 20.2864C50.5887 19.9404 50.2079 19.7538 49.8332 19.8369L46.0215 20.6839C46.1047 20.062 46.0506 19.4256 45.86 18.823L51.4548 18.2368L52.7602 24.5249L50.7525 20.2864ZM28.5702 52.8738C25.6757 52.8738 23.3207 55.2288 23.3207 58.1235C23.3207 58.5765 23.688 58.9438 24.141 58.9438H32.9996C33.4526 58.9438 33.8199 58.5765 33.8199 58.1235C33.8199 55.2288 31.4649 52.8738 28.5702 52.8738ZM25.0554 57.3032C25.4277 55.707 26.8623 54.5145 28.5702 54.5145C30.2782 54.5145 31.7129 55.707 32.0852 57.3032H25.0554ZM30.0235 4.84219C29.4031 4.22191 28.5783 3.88031 27.7012 3.88031C26.8239 3.88031 25.9991 4.22191 25.3789 4.84219C24.7585 5.46258 24.4168 6.28734 24.4168 7.16461C24.4168 8.04187 24.7585 8.86664 25.3788 9.48703C25.9991 10.1073 26.8239 10.4489 27.7012 10.4489C28.5783 10.4489 29.4031 10.1073 30.0235 9.48703C30.6439 8.86676 30.9856 8.04187 30.9856 7.16461C30.9856 6.28734 30.6439 5.46258 30.0235 4.84219ZM28.8636 8.32699C28.5531 8.63742 28.1402 8.8084 27.7012 8.8084C27.2621 8.8084 26.8492 8.63742 26.5388 8.32699C26.2284 8.01656 26.0574 7.60371 26.0574 7.16473C26.0574 6.72574 26.2284 6.31277 26.5388 6.00234C26.8491 5.69191 27.2621 5.52094 27.7012 5.52094C28.1402 5.52094 28.5531 5.69191 28.8636 6.00234C29.174 6.31277 29.345 6.72563 29.345 7.16473C29.345 7.60383 29.174 8.01645 28.8636 8.32699ZM14.713 25.3536C16.1246 23.9422 16.1246 21.6456 14.713 20.2341C13.3018 18.8227 11.0049 18.8227 9.59359 20.2341C8.18207 21.6455 8.18207 23.9421 9.59359 25.3536C10.2992 26.0593 11.2264 26.4122 12.1533 26.4122C13.0803 26.4122 14.0073 26.0593 14.713 25.3536ZM10.1738 22.7938C10.1738 22.265 10.3798 21.768 10.7535 21.3941C11.1273 21.0203 11.6246 20.8144 12.1532 20.8144C12.6818 20.8144 13.1791 21.0203 13.5529 21.3941C13.9266 21.7679 14.1326 22.265 14.1326 22.7938C14.1326 23.3225 13.9266 23.8195 13.5529 24.1935C13.1791 24.5673 12.6818 24.7732 12.1532 24.7732C11.6246 24.7732 11.1273 24.5673 10.7535 24.1935C10.3798 23.8196 10.1738 23.3225 10.1738 22.7938ZM42.3824 19.5342C42.7027 19.8545 42.7027 20.374 42.3824 20.6943C42.062 21.0145 41.5427 21.0145 41.2223 20.6943C40.902 20.3739 40.902 19.8545 41.2223 19.5342C41.5427 19.2139 42.062 19.2139 42.3824 19.5342Z" fill="white"/>
</svg>
